<mxfile host="app.diagrams.net" modified="2023-11-16T15:03:12.942Z" agent="Mozilla/5.0 (Windows NT 10.0; Win64; x64) AppleWebKit/537.36 (KHTML, like Gecko) Chrome/119.0.0.0 Safari/537.36" etag="KQABnCc3_SDVyPMPoSgr" version="22.1.2" type="device">
  <diagram name="Page-1" id="McyMHSzjDs7s2wAdyM3S">
    <mxGraphModel dx="1826" dy="749" grid="1" gridSize="10" guides="1" tooltips="1" connect="1" arrows="1" fold="1" page="1" pageScale="1" pageWidth="1169" pageHeight="827" math="0" shadow="0">
      <root>
        <mxCell id="0" />
        <mxCell id="1" parent="0" />
        <mxCell id="gjK0mtJBA3Fu0gYaQ9co-18" style="edgeStyle=orthogonalEdgeStyle;rounded=0;orthogonalLoop=1;jettySize=auto;html=1;exitX=0.5;exitY=1;exitDx=0;exitDy=0;entryX=0.5;entryY=0;entryDx=0;entryDy=0;" edge="1" parent="1" source="gjK0mtJBA3Fu0gYaQ9co-14" target="gjK0mtJBA3Fu0gYaQ9co-4">
          <mxGeometry relative="1" as="geometry" />
        </mxCell>
        <mxCell id="gjK0mtJBA3Fu0gYaQ9co-14" value="&lt;b&gt;Preparation Phase&lt;/b&gt;&lt;br&gt;&lt;br&gt;&lt;br&gt;&lt;br&gt;&lt;br&gt;&lt;br&gt;" style="rounded=0;whiteSpace=wrap;html=1;fillColor=#E6E6E6;" vertex="1" parent="1">
          <mxGeometry x="40" y="30" width="420" height="100" as="geometry" />
        </mxCell>
        <mxCell id="gjK0mtJBA3Fu0gYaQ9co-7" style="edgeStyle=orthogonalEdgeStyle;rounded=0;orthogonalLoop=1;jettySize=auto;html=1;exitX=1;exitY=0.5;exitDx=0;exitDy=0;entryX=0;entryY=0.5;entryDx=0;entryDy=0;" edge="1" parent="1" source="gjK0mtJBA3Fu0gYaQ9co-1" target="gjK0mtJBA3Fu0gYaQ9co-2">
          <mxGeometry relative="1" as="geometry" />
        </mxCell>
        <mxCell id="gjK0mtJBA3Fu0gYaQ9co-1" value="&lt;span&gt;Data&lt;br&gt;Generation&lt;br&gt;&lt;/span&gt;" style="rounded=0;whiteSpace=wrap;html=1;fillColor=#E6E6E6;fontStyle=0" vertex="1" parent="1">
          <mxGeometry x="50" y="60" width="100" height="60" as="geometry" />
        </mxCell>
        <mxCell id="gjK0mtJBA3Fu0gYaQ9co-8" style="edgeStyle=orthogonalEdgeStyle;rounded=0;orthogonalLoop=1;jettySize=auto;html=1;exitX=1;exitY=0.5;exitDx=0;exitDy=0;entryX=0;entryY=0.5;entryDx=0;entryDy=0;" edge="1" parent="1" source="gjK0mtJBA3Fu0gYaQ9co-2" target="gjK0mtJBA3Fu0gYaQ9co-3">
          <mxGeometry relative="1" as="geometry" />
        </mxCell>
        <mxCell id="gjK0mtJBA3Fu0gYaQ9co-2" value="&lt;span&gt;Data&lt;br&gt;Warehouse Creation&lt;br&gt;&lt;/span&gt;" style="rounded=0;whiteSpace=wrap;html=1;fillColor=#E6E6E6;fontStyle=1" vertex="1" parent="1">
          <mxGeometry x="200" y="60" width="100" height="60" as="geometry" />
        </mxCell>
        <mxCell id="gjK0mtJBA3Fu0gYaQ9co-3" value="&lt;span&gt;Data&lt;br&gt;Integration&lt;br&gt;Preparation&lt;br&gt;&lt;/span&gt;" style="rounded=0;whiteSpace=wrap;html=1;fillColor=#E6E6E6;fontStyle=1" vertex="1" parent="1">
          <mxGeometry x="350" y="60" width="100" height="60" as="geometry" />
        </mxCell>
        <mxCell id="gjK0mtJBA3Fu0gYaQ9co-10" style="edgeStyle=orthogonalEdgeStyle;rounded=0;orthogonalLoop=1;jettySize=auto;html=1;exitX=1;exitY=0.5;exitDx=0;exitDy=0;entryX=0;entryY=0.5;entryDx=0;entryDy=0;" edge="1" parent="1" source="gjK0mtJBA3Fu0gYaQ9co-4" target="gjK0mtJBA3Fu0gYaQ9co-5">
          <mxGeometry relative="1" as="geometry" />
        </mxCell>
        <mxCell id="gjK0mtJBA3Fu0gYaQ9co-4" value="&lt;b&gt;Historical&lt;br&gt;Load Phase&lt;br&gt;&lt;/b&gt;" style="rounded=0;whiteSpace=wrap;html=1;fillColor=#FFFF99;" vertex="1" parent="1">
          <mxGeometry x="50" y="180" width="100" height="60" as="geometry" />
        </mxCell>
        <mxCell id="gjK0mtJBA3Fu0gYaQ9co-11" style="edgeStyle=orthogonalEdgeStyle;rounded=0;orthogonalLoop=1;jettySize=auto;html=1;exitX=1;exitY=0.5;exitDx=0;exitDy=0;entryX=0;entryY=0.5;entryDx=0;entryDy=0;" edge="1" parent="1" source="gjK0mtJBA3Fu0gYaQ9co-5" target="gjK0mtJBA3Fu0gYaQ9co-6">
          <mxGeometry relative="1" as="geometry" />
        </mxCell>
        <mxCell id="gjK0mtJBA3Fu0gYaQ9co-5" value="&lt;b&gt;Incremental Update Phase&lt;br&gt;&lt;/b&gt;" style="rounded=0;whiteSpace=wrap;html=1;fillColor=#FFFF99;" vertex="1" parent="1">
          <mxGeometry x="200" y="180" width="100" height="60" as="geometry" />
        </mxCell>
        <mxCell id="gjK0mtJBA3Fu0gYaQ9co-6" value="&lt;b&gt;Automated&lt;br&gt;Audit Phase&lt;br&gt;&lt;/b&gt;" style="rounded=0;whiteSpace=wrap;html=1;fillColor=#E6E6E6;" vertex="1" parent="1">
          <mxGeometry x="350" y="180" width="100" height="60" as="geometry" />
        </mxCell>
      </root>
    </mxGraphModel>
  </diagram>
</mxfile>
